<svg width="30" height="30" viewBox="0 0 30 30" fill="#000000" xmlns="http://www.w3.org/2000/svg">
<g id="brightness_6_24px">
<path id="icon/image/brightness_6_24px" fill-rule="evenodd" clip-rule="evenodd" d="M24.9998 10.8625V5.00005H19.1373L14.9998 0.862549L10.8623 5.00005H4.9998V10.8625L0.862305 15L4.9998 19.1375V25H10.8623L14.9998 29.1375L19.1373 25H24.9998V19.1375L29.1373 15L24.9998 10.8625ZM22.4998 18.1V22.5H18.0998L14.9998 25.6L11.8998 22.5H7.4998V18.1L4.3998 15L7.4998 11.9V7.50005H11.8998L14.9998 4.40005L18.0998 7.50005H22.4998V11.9L25.5998 15L22.4998 18.1ZM21.8748 15C21.8748 18.7875 18.7873 21.875 14.9998 21.875V8.12505C18.7873 8.12505 21.8748 11.2126 21.8748 15Z" />
</g>
</svg>
