<svg width="16" height="16" viewBox="0 0 16 16" fill="#424243" xmlns="http://www.w3.org/2000/svg">
<path fill-rule="evenodd" clip-rule="evenodd" d="M8.00016 1.33334C5.42016 1.33334 3.3335 3.42 3.3335 6C3.3335 9.5 8.00016 14.6667 8.00016 14.6667C8.00016 14.6667 12.6668 9.5 12.6668 6C12.6668 3.42 10.5802 1.33334 8.00016 1.33334ZM4.66683 6C4.66683 4.16 6.16016 2.66667 8.00016 2.66667C9.84016 2.66667 11.3335 4.16 11.3335 6C11.3335 7.92 9.4135 10.7933 8.00016 12.5867C6.6135 10.8067 4.66683 7.9 4.66683 6ZM6.3335 6C6.3335 5.07953 7.07969 4.33334 8.00016 4.33334C8.59561 4.33334 9.14582 4.651 9.44354 5.16667C9.74126 5.68234 9.74126 6.31767 9.44354 6.83334C9.14582 7.349 8.59561 7.66667 8.00016 7.66667C7.07969 7.66667 6.3335 6.92048 6.3335 6Z" />
</svg>
