<svg width="70" height="84" viewBox="0 0 70 84" fill="none" xmlns="http://www.w3.org/2000/svg">
<path d="M62.4937 29.5C58.1875 28.875 54.875 32 54.875 35.75V32.9375C54.875 29.8125 52.5562 27 49.2437 26.375C44.9375 25.75 41.625 28.875 41.625 32.625V29.8125C41.625 26.6875 39.3062 23.875 35.9937 23.25C31.6875 22.625 28.375 25.75 28.375 29.5V7.9375C28.375 4.8125 26.0563 2 22.7438 1.375C18.7688 0.750002 15.125 3.875 15.125 7.625V34.1875C15.125 29.5 10.8187 26.0625 5.85 26.375C4.19375 26.375 2.86875 27 1.875 27.9375V52C1.875 67.9375 14.7938 82 31.6875 82.625C32.6813 82.625 33.675 82.625 34.3375 82.625C53.55 82 68.125 66.6875 68.125 48.5625V48.25V36.0625C68.125 32.9375 65.8062 30.125 62.7 29.5Z" stroke="white" stroke-width="2"  stroke-linecap="round"/>
</svg>
